<?xml version="1.0" encoding="iso-8859-1"?>
<!-- Generator: Adobe Illustrator 19.0.0, SVG Export Plug-In . SVG Version: 6.00 Build 0)  -->
<svg xmlns="http://www.w3.org/2000/svg" xmlns:xlink="http://www.w3.org/1999/xlink" version="1.1" id="Layer_1" x="0px" y="0px" viewBox="0 0 512 512" style="enable-background:new 0 0 512 512;" xml:space="preserve">
<path style="fill:#EF584F;" d="M293.51,31.986c-19.345,0-35.283,14.54-37.51,33.285c-2.227-18.745-18.165-33.285-37.51-33.285  c-20.868,0-37.785,16.917-37.785,37.785c0,39.744,75.29,83.967,75.29,83.967h0.008c0,0,75.29-44.223,75.29-83.967  C331.294,48.904,314.377,31.986,293.51,31.986z"/>
<rect x="10.039" y="434.838" style="fill:#75706B;" width="491.922" height="45.176"/>
<path style="fill:#EF717A;" d="M456.784,313.532v31.453c-20.078,0-20.078,20.078-40.167,20.078  c-20.078,0-20.078-20.078-40.157-20.078s-20.078,20.078-40.157,20.078c-20.078,0-20.078-20.078-40.157-20.078  s-20.078,20.078-40.157,20.078s-20.078-20.078-40.157-20.078s-20.078,20.078-40.147,20.078c-20.078,0-20.078-20.078-40.157-20.078  s-20.078,20.078-40.157,20.078s-20.078-20.078-40.157-20.078v-31.453c0-10.632,8.614-19.245,19.245-19.245h363.078  C448.171,294.287,456.784,302.901,456.784,313.532z"/>
<path style="fill:#EFEFEF;" d="M456.784,344.985v89.851H55.216v-89.851c20.078,0,20.078,20.078,40.157,20.078  s20.078-20.078,40.157-20.078s20.078,20.078,40.157,20.078c20.068,0,20.068-20.078,40.147-20.078s20.078,20.078,40.157,20.078  s20.078-20.078,40.157-20.078s20.078,20.078,40.157,20.078c20.078,0,20.078-20.078,40.157-20.078s20.078,20.078,40.157,20.078  C436.706,365.064,436.706,344.985,456.784,344.985z"/>
<path style="fill:#EF717A;" d="M401.569,172.983v47.014c-18.191,0-18.191-20.078-36.382-20.078  c-18.201,0-18.201,20.078-36.392,20.078c-18.191,0-18.191-20.078-36.392-20.078c-18.191,0-18.191,20.078-36.392,20.078  c-18.191,0-18.191-20.078-36.392-20.078c-18.191,0-18.191,20.078-36.392,20.078s-18.201-20.078-36.392-20.078  c-18.201,0-18.201,20.078-36.402,20.078v-47.014c0-10.632,8.614-19.245,19.245-19.245h252.647  C392.955,153.738,401.569,162.352,401.569,172.983z"/>
<path style="fill:#EFEFEF;" d="M401.569,219.997v74.29H110.431v-74.29c18.201,0,18.201-20.078,36.402-20.078  c18.191,0,18.191,20.078,36.392,20.078s18.201-20.078,36.392-20.078c18.201,0,18.201,20.078,36.392,20.078  c18.201,0,18.201-20.078,36.392-20.078c18.201,0,18.201,20.078,36.392,20.078c18.191,0,18.191-20.078,36.392-20.078  C383.378,199.918,383.378,219.997,401.569,219.997z"/>
<g>
	<path style="fill:#231F20;" d="M501.961,424.797h-35.137V313.532c0-16.147-13.137-29.284-29.284-29.284h-25.931V172.983   c0-16.147-13.137-29.284-29.284-29.284H288.48c3.779-2.882,7.721-6.028,11.678-9.396c27.322-23.26,41.176-44.972,41.176-64.531   c0-26.371-21.454-47.825-47.825-47.825c-15.089,0-28.702,7.035-37.509,18.152c-8.806-11.115-22.42-18.152-37.508-18.152   c-26.371,0-47.825,21.454-47.825,47.825c0,19.56,13.854,41.271,41.177,64.532c3.956,3.368,7.899,6.512,11.678,9.396h-93.845   c-16.147,0-29.284,13.136-29.284,29.284v111.265H74.461c-16.147,0-29.284,13.136-29.284,29.284v111.265H10.039   C4.496,424.798,0,429.292,0,434.837v45.176c0,5.545,4.496,10.039,10.039,10.039h491.922c5.544,0,10.039-4.495,10.039-10.039   v-45.176C512,429.291,507.504,424.797,501.961,424.797z M190.745,69.772c0-15.299,12.447-27.746,27.746-27.746   c14.046,0,25.885,10.502,27.54,24.429c0.6,5.051,4.883,8.855,9.97,8.855c5.087,0,9.37-3.804,9.97-8.855   c1.653-13.927,13.493-24.429,27.54-24.429c15.298,0,27.744,12.447,27.744,27.746c0,23.22-38.079,55.158-65.235,72.206   C234.728,128.448,190.745,95.273,190.745,69.772z M120.471,172.983c0-5.076,4.129-9.206,9.206-9.206h252.647   c5.077,0,9.206,4.13,9.206,9.206V204c-0.23-0.252-0.468-0.513-0.712-0.783c-5.1-5.629-12.084-13.338-25.631-13.338   c-13.552,0-20.539,7.71-25.64,13.339c-4.345,4.794-6.287,6.739-10.752,6.739c-4.465,0-6.406-1.946-10.751-6.739   c-5.101-5.629-12.088-13.339-25.641-13.339c-13.544,0-20.528,7.707-25.628,13.334c-4.347,4.798-6.291,6.744-10.764,6.744   c-4.465,0-6.406-1.946-10.751-6.739c-5.101-5.629-12.088-13.339-25.641-13.339c-13.544,0-20.528,7.707-25.628,13.334   c-4.347,4.798-6.291,6.744-10.764,6.744c-4.472,0-6.416-1.947-10.763-6.743c-5.1-5.627-12.084-13.335-25.629-13.335   c-13.55,0-20.537,7.708-25.639,13.336c-0.249,0.274-0.489,0.54-0.724,0.795C120.471,204.01,120.471,172.983,120.471,172.983z    M120.445,228.394c7.323-2.565,11.967-7.657,15.625-11.693c4.347-4.796,6.291-6.742,10.763-6.742c4.465,0,6.407,1.946,10.752,6.739   c5.101,5.629,12.088,13.339,25.64,13.339c13.553,0,20.54-7.71,25.641-13.339c4.345-4.794,6.286-6.739,10.751-6.739   c4.473,0,6.417,1.947,10.764,6.744c5.1,5.627,12.084,13.334,25.628,13.334c13.553,0,20.54-7.71,25.641-13.339   c4.345-4.794,6.286-6.739,10.751-6.739c4.473,0,6.417,1.947,10.764,6.744c5.1,5.627,12.084,13.334,25.628,13.334   c13.545,0,20.529-7.707,25.629-13.335c4.347-4.797,6.291-6.743,10.763-6.743c4.466,0,6.407,1.946,10.751,6.74   c3.654,4.033,8.291,9.12,15.601,11.688l-0.009,0.016v55.845H120.471v-55.844L120.445,228.394z M65.255,313.532   c0-5.076,4.129-9.206,9.206-9.206h363.078c5.077,0,9.206,4.13,9.206,9.206v22.839c-8.023,2.44-13.123,7.538-17.136,11.551   c-4.925,4.924-7.342,7.102-12.991,7.102c-5.643,0-8.056-2.177-12.98-7.099c-5.477-5.477-12.98-12.98-27.177-12.98   s-21.7,7.502-27.177,12.98c-4.922,4.922-7.337,7.099-12.98,7.099c-5.643,0-8.056-2.177-12.98-7.099   c-5.477-5.477-12.98-12.98-27.177-12.98c-14.197,0-21.7,7.502-27.177,12.98c-4.922,4.922-7.337,7.099-12.98,7.099   s-8.056-2.177-12.98-7.099c-5.477-5.477-12.98-12.98-27.177-12.98c-14.2,0-21.701,7.503-27.178,12.983   c-4.919,4.92-7.333,7.096-12.969,7.096c-5.643,0-8.056-2.177-12.98-7.099c-5.477-5.477-12.98-12.98-27.177-12.98   s-21.7,7.502-27.177,12.98c-4.922,4.922-7.337,7.099-12.98,7.099s-8.056-2.177-12.98-7.099c-4.014-4.014-9.115-9.114-17.138-11.553   v-22.84H65.255z M65.255,359.277c0,0,2.474,2.38,2.94,2.847c5.477,5.477,12.98,12.98,27.177,12.98s21.7-7.502,27.177-12.98   c4.922-4.922,7.337-7.099,12.98-7.099s8.056,2.177,12.98,7.099c5.477,5.477,12.98,12.98,27.177,12.98   c14.192,0,21.692-7.501,27.168-12.979c4.921-4.923,7.337-7.1,12.98-7.1c5.643,0,8.056,2.177,12.98,7.099   c5.477,5.477,12.98,12.98,27.177,12.98s21.7-7.502,27.177-12.98c4.922-4.922,7.337-7.099,12.98-7.099   c5.643,0,8.056,2.177,12.98,7.099c5.477,5.477,12.98,12.98,27.177,12.98c14.197,0,21.7-7.502,27.177-12.98   c4.922-4.922,7.337-7.099,12.98-7.099c5.643,0,8.056,2.177,12.98,7.099c5.477,5.477,12.98,12.98,27.177,12.98   c14.202,0,21.707-7.502,27.187-12.981c1.082-1.082,2.039-2.024,2.94-2.846v65.521H65.255V359.277z M491.922,469.973H20.078v-25.098   h471.843V469.973z"/>
	<path style="fill:#231F20;" d="M340.661,269.36c2.65,0,5.23-1.074,7.097-2.941c1.867-1.867,2.942-4.457,2.942-7.098   c0-2.65-1.074-5.23-2.942-7.098c-1.866-1.877-4.447-2.941-7.097-2.941c-2.64,0-5.23,1.064-7.098,2.941   c-1.867,1.867-2.941,4.457-2.941,7.098c0,2.64,1.073,5.22,2.941,7.098C335.43,268.286,338.02,269.36,340.661,269.36z"/>
	<path style="fill:#231F20;" d="M284.219,269.36c5.543,0,10.039-4.498,10.039-10.039c0-5.552-4.497-10.039-10.039-10.039   c-5.542,0-10.039,4.488-10.039,10.039C274.18,264.862,278.679,269.36,284.219,269.36z"/>
	<path style="fill:#231F20;" d="M227.78,269.36c5.543,0,10.039-4.498,10.039-10.039c0-5.552-4.497-10.039-10.039-10.039   c-5.542,0-10.039,4.488-10.039,10.039C217.741,264.862,222.238,269.36,227.78,269.36z"/>
	<path style="fill:#231F20;" d="M171.339,269.36c2.64,0,5.23-1.074,7.098-2.941c1.866-1.867,2.941-4.457,2.941-7.098   c0-2.65-1.074-5.23-2.941-7.098c-1.867-1.877-4.457-2.941-7.098-2.941c-2.65,0-5.23,1.064-7.098,2.941   c-1.877,1.867-2.941,4.447-2.941,7.098c0,2.64,1.064,5.23,2.941,7.098C166.109,268.286,168.689,269.36,171.339,269.36z"/>
	<path style="fill:#231F20;" d="M405.082,408.905c2.64,0,5.23-1.074,7.097-2.941c1.867-1.867,2.942-4.457,2.942-7.098   c0-2.65-1.074-5.23-2.942-7.098c-1.866-1.867-4.456-2.941-7.097-2.941s-5.23,1.074-7.098,2.941   c-1.867,1.867-2.941,4.447-2.941,7.098c0,2.64,1.073,5.22,2.941,7.098C399.852,407.831,402.442,408.905,405.082,408.905z"/>
	<path style="fill:#231F20;" d="M226.184,408.905c5.542,0,10.039-4.498,10.039-10.039c0-5.552-4.498-10.039-10.039-10.039   s-10.039,4.488-10.039,10.039C216.144,404.407,220.642,408.905,226.184,408.905z"/>
	<path style="fill:#231F20;" d="M166.55,408.905c5.543,0,10.039-4.498,10.039-10.039c0-5.552-4.497-10.039-10.039-10.039   c-5.542,0-10.039,4.488-10.039,10.039C156.51,404.407,161.009,408.905,166.55,408.905z"/>
	<path style="fill:#231F20;" d="M345.449,408.905c5.543,0,10.039-4.498,10.039-10.039c0-5.552-4.497-10.039-10.039-10.039   c-5.542,0-10.039,4.488-10.039,10.039C335.41,404.407,339.908,408.905,345.449,408.905z"/>
	<path style="fill:#231F20;" d="M285.816,408.905c5.542,0,10.039-4.498,10.039-10.039c0-5.552-4.498-10.039-10.039-10.039   c-5.543,0-10.039,4.488-10.039,10.039C275.777,404.407,280.275,408.905,285.816,408.905z"/>
	<path style="fill:#231F20;" d="M106.918,408.905c2.64,0,5.23-1.074,7.097-2.941c1.867-1.867,2.942-4.457,2.942-7.098   c0-2.65-1.074-5.23-2.942-7.108c-1.866-1.867-4.456-2.931-7.097-2.931s-5.23,1.064-7.098,2.931   c-1.867,1.877-2.941,4.457-2.941,7.108c0,2.64,1.073,5.23,2.941,7.098C101.687,407.831,104.277,408.905,106.918,408.905z"/>
</g>
<g>
</g>
<g>
</g>
<g>
</g>
<g>
</g>
<g>
</g>
<g>
</g>
<g>
</g>
<g>
</g>
<g>
</g>
<g>
</g>
<g>
</g>
<g>
</g>
<g>
</g>
<g>
</g>
<g>
</g>
</svg>
