<?xml version="1.0" encoding="iso-8859-1"?>
<!-- Generator: Adobe Illustrator 16.0.0, SVG Export Plug-In . SVG Version: 6.00 Build 0)  -->
<!DOCTYPE svg PUBLIC "-//W3C//DTD SVG 1.1//EN" "http://www.w3.org/Graphics/SVG/1.1/DTD/svg11.dtd">
<svg version="1.1" id="Capa_1" xmlns="http://www.w3.org/2000/svg" xmlns:xlink="http://www.w3.org/1999/xlink" x="0px" y="0px"
	 width="485.211px" height="485.211px" viewBox="0 0 485.211 485.211" style="enable-background:new 0 0 485.211 485.211;"
	 xml:space="preserve">
<g>
	<path d="M255.875,106.141c49.783,0,90.145,39.329,92.427,88.551c4.527-0.653,9.03-1.363,13.712-1.363
		c51.291,0,92.875,41.577,92.875,92.87c0,51.292-41.584,92.875-92.875,92.875H109.931c-43.95,0-79.604-35.628-79.604-79.606
		c0-37.467,26-68.706,60.889-77.177c-0.028-0.829-0.238-1.599-0.238-2.429c0-29.319,23.751-53.067,53.072-53.067
		c8.408,0,16.23,2.13,23.277,5.596C178.845,134.157,213.911,106.141,255.875,106.141 M255.875,75.816
		c-44.543,0-84.227,23.571-105.903,60.887c-1.958-0.177-3.941-0.236-5.922-0.236c-39.21,0-72.202,27.244-81.09,63.792
		C25.025,218.085,0,256.255,0,299.467c0,60.621,49.308,109.929,109.931,109.929h252.083c67.934,0,123.197-55.258,123.197-123.197
		c0-64.027-49.098-116.803-111.646-122.665C358.373,112.537,311.348,75.816,255.875,75.816L255.875,75.816z"/>
</g>
<g>
</g>
<g>
</g>
<g>
</g>
<g>
</g>
<g>
</g>
<g>
</g>
<g>
</g>
<g>
</g>
<g>
</g>
<g>
</g>
<g>
</g>
<g>
</g>
<g>
</g>
<g>
</g>
<g>
</g>
</svg>
