<?xml version="1.0" ?><svg id="Filled_Outline_1_" style="enable-background:new 0 0 64 64;" version="1.1" viewBox="0 0 64 64" xml:space="preserve" xmlns="http://www.w3.org/2000/svg" xmlns:xlink="http://www.w3.org/1999/xlink"><title/><desc/><style type="text/css">
	.st0{fill:#18C29C;}
	.st1{fill:#18A596;}
	.st2{fill:#FFBB2C;}
	.st3{fill:#FFD18B;}
	.st4{fill:#272A56;}
	.st5{fill:#FF7BAC;}
	.st6{fill:#FD58A1;}
	.st7{fill:none;}
	.st8{fill:#FFD8B1;}
	.st9{fill:#FFFDE9;}
	.st10{fill:#FFCAA9;}
	.st11{fill:#8C6239;}
	.st12{fill:#ECECD8;}
	.st13{fill:#96C6EE;}
	.st14{fill:#29ABE2;}
	.st15{fill:#A67C52;}
	.st16{fill:#CCCCCC;}
</style><g><g><path class="st5" d="M47,35L29,53L11,35c-4.971-4.971-4.971-13.029,0-18l0,0c4.971-4.971,13.029-4.971,18,0l0,0l0,0    c4.971-4.971,13.029-4.971,18,0l0,0C51.971,21.971,51.971,30.029,47,35z"/><path class="st6" d="M11,35c9.949,0,18-8.051,18-18l0,0c4.971-4.971,13.029-4.971,18,0l0,0c4.971,4.971,4.971,13.029,0,18L29,53    L11,35z"/><path class="st5" d="M54,41L42,53L30,41c-3.314-3.314-3.314-8.686,0-12l0,0c3.314-3.314,8.686-3.314,12,0l0,0l0,0    c3.314-3.314,8.686-3.314,12,0l0,0C57.314,32.314,57.314,37.686,54,41z"/><path class="st6" d="M30,41c6.633,0,12-5.367,12-12l0,0c3.314-3.314,8.686-3.314,12,0l0,0c3.314,3.314,3.314,8.686,0,12L42,53    L30,41z"/></g><g><path class="st4" d="M56.616,23.964c-0.674-0.527-1.398-0.993-2.153-1.387l-0.925,1.773c0.646,0.337,1.268,0.737,1.846,1.189    L56.616,23.964z"/><path class="st4" d="M58.103,25.308l-1.443,1.385C58.813,28.937,60,31.887,60,35h2C62,31.368,60.616,27.926,58.103,25.308z"/><path class="st4" d="M16.234,10.445l-0.469-1.944C7.661,10.456,2,17.651,2,26h2C4,18.579,9.031,12.183,16.234,10.445z"/><path class="st4" d="M20,10V8c-0.706,0-1.418,0.042-2.116,0.123l0.232,1.986C18.737,10.037,19.371,10,20,10z"/><rect class="st4" height="18.385" transform="matrix(0.7071 -0.7071 0.7071 0.7071 -22.4619 28.7721)" width="2" x="22.5" y="32.308"/><rect class="st4" height="2.121" transform="matrix(0.7071 -0.7071 0.7071 0.7071 -18.8376 20.0221)" width="2" x="13.75" y="31.689"/><path class="st4" d="M51.705,26.272c0.073-3.728-1.347-7.328-3.998-9.979c-5.123-5.122-13.32-5.342-18.707-0.66    c-5.387-4.683-13.584-4.462-18.707,0.66c-5.353,5.353-5.353,14.062,0,19.414l18,18C28.488,53.902,28.744,54,29,54    s0.512-0.098,0.707-0.293l5.793-5.793l5.793,5.793C41.488,53.902,41.744,54,42,54s0.512-0.098,0.707-0.293l12-12    c3.698-3.698,3.698-9.716,0-13.414C53.819,27.405,52.796,26.734,51.705,26.272z M29,51.586L11.707,34.293    c-4.573-4.573-4.573-12.013,0-16.586c4.573-4.572,12.013-4.572,16.586,0c0.391,0.391,1.023,0.391,1.414,0    c4.573-4.572,12.013-4.572,16.586,0c2.135,2.136,3.349,4.99,3.429,7.978c-2.671-0.49-5.511,0.16-7.721,1.968    c-3.723-3.044-9.236-2.831-12.707,0.64c-3.698,3.698-3.698,9.716,0,13.414l4.793,4.793L29,51.586z M53.293,40.293L42,51.586    L30.707,40.293c-2.918-2.918-2.918-7.667,0-10.586c1.459-1.459,3.376-2.189,5.293-2.189s3.833,0.73,5.293,2.189    c0.391,0.391,1.023,0.391,1.414,0c2.919-2.918,7.667-2.918,10.586,0C56.211,32.625,56.211,37.375,53.293,40.293z"/></g></g></svg>