<?xml version="1.0" ?><svg id="Filled_Outline_1_" style="enable-background:new 0 0 64 64;" version="1.1" viewBox="0 0 64 64" xml:space="preserve" xmlns="http://www.w3.org/2000/svg" xmlns:xlink="http://www.w3.org/1999/xlink"><title/><desc/><style type="text/css">
	.st0{fill:#18C29C;}
	.st1{fill:#18A596;}
	.st2{fill:#FFBB2C;}
	.st3{fill:#FFD18B;}
	.st4{fill:#272A56;}
	.st5{fill:#FF7BAC;}
	.st6{fill:#FD58A1;}
	.st7{fill:none;}
	.st8{fill:#FFD8B1;}
	.st9{fill:#FFFDE9;}
	.st10{fill:#FFCAA9;}
	.st11{fill:#8C6239;}
	.st12{fill:#ECECD8;}
	.st13{fill:#96C6EE;}
	.st14{fill:#29ABE2;}
	.st15{fill:#A67C52;}
	.st16{fill:#CCCCCC;}
</style><g><g><g><path class="st3" d="M31.642,23.858L31.642,23.858c-3.124-3.124-8.19-3.124-11.314,0l-7.071,7.071l-4.243,1.414l14.142,14.142     l1.414-4.243l7.071-7.071C34.766,32.047,34.766,26.982,31.642,23.858z"/><path class="st2" d="M23.157,46.485L9.015,32.343l4.243-1.414l2.121,2.121c1.953,1.953,5.118,1.953,7.071,0l9.192-9.192l0,0     c3.124,3.124,3.124,8.19,0,11.314l-7.071,7.071L23.157,46.485z"/><g><path class="st3" d="M32.358,23.858L32.358,23.858c-3.124,3.124-3.124,8.19,0,11.314l7.071,7.071l1.414,4.243l14.142-14.142      l-4.243-1.414l-7.071-7.071C40.547,20.734,35.482,20.734,32.358,23.858z"/><path class="st2" d="M40.843,46.485l14.142-14.142l-4.243-1.414l-2.121,2.121c-1.953,1.953-5.118,1.953-7.071,0l-9.192-9.192      l0,0c-3.124,3.124-3.124,8.19,0,11.314l7.071,7.071L40.843,46.485z"/></g></g><path class="st5" d="M15,13v8H7c-2.209,0-4-1.791-4-4v0c0-2.209,1.791-4,4-4h0v0c0-2.209,1.791-4,4-4h0C13.209,9,15,10.791,15,13z    "/><path class="st5" d="M49,13v8h8c2.209,0,4-1.791,4-4v0c0-2.209-1.791-4-4-4h0v0c0-2.209-1.791-4-4-4h0C50.791,9,49,10.791,49,13z"/><path class="st6" d="M57,13h0.5c1.933,0,3.5,1.567,3.5,3.5v0c0,1.933-1.567,3.5-3.5,3.5H49h1C53.866,20,57,16.866,57,13L57,13z"/><path class="st6" d="M7,13H6.5C4.567,13,3,14.567,3,16.5v0C3,18.433,4.567,20,6.5,20H15h-1C10.134,20,7,16.866,7,13L7,13z"/><path class="st5" d="M19,17.954v6.092c0,1.415,1.429,2.382,2.743,1.857L29,23v-4l-7.257-2.903C20.429,15.572,19,16.539,19,17.954z    "/><path class="st5" d="M45,17.954v6.092c0,1.415-1.429,2.382-2.743,1.857L35,23v-4l7.257-2.903C43.571,15.572,45,16.539,45,17.954z"/><circle class="st5" cx="32" cy="21" r="4"/><path class="st6" d="M23,21L23,21c0,1.035,0.947,1.811,1.961,1.608L28,22v-2l-3.039-0.608C23.947,19.189,23,19.965,23,21z"/><path class="st6" d="M32,17c-2.21,0-4,1.79-4,4c0,2.21,1.79,4,4,4s4-1.79,4-4C36,18.79,34.21,17,32,17z M31,22c-1.1,0-2-0.9-2-2    c0-1.1,0.9-2,2-2s2,0.9,2,2C33,21.1,32.1,22,31,22z"/><path class="st6" d="M41,21L41,21c0,1.035-0.947,1.811-1.961,1.608L36,22v-2l3.039-0.608C40.053,19.189,41,19.965,41,21z"/></g><g><path class="st4" d="M55.302,31.395l-4.019-1.34l-5.362-5.362c0.047-0.211,0.08-0.426,0.08-0.646v-6.092    c0-0.997-0.493-1.925-1.318-2.484c-0.825-0.559-1.869-0.67-2.796-0.301l-6.201,2.48C34.769,16.643,33.463,16,32,16    s-2.769,0.643-3.685,1.649l-6.201-2.48c-0.926-0.368-1.97-0.257-2.796,0.301C18.493,16.029,18,16.958,18,17.954v6.092    c0,0.221,0.033,0.436,0.08,0.647l-5.362,5.362l-4.019,1.34c-0.329,0.11-0.577,0.382-0.657,0.719    c-0.08,0.337,0.021,0.691,0.266,0.937L22.45,47.192c0.189,0.19,0.445,0.293,0.707,0.293c0.077,0,0.153-0.009,0.229-0.027    c0.337-0.08,0.609-0.328,0.719-0.657l1.34-4.019L32,36.228l6.555,6.555l1.34,4.019c0.11,0.329,0.382,0.577,0.719,0.657    c0.076,0.018,0.153,0.027,0.229,0.027c0.262,0,0.518-0.103,0.707-0.293L55.692,33.05c0.245-0.245,0.346-0.6,0.266-0.937    C55.879,31.776,55.63,31.504,55.302,31.395z M42.629,17.026c0.312-0.126,0.652-0.088,0.932,0.1C43.84,17.315,44,17.617,44,17.954    v6.092c0,0.337-0.16,0.639-0.439,0.828c-0.279,0.188-0.62,0.226-0.932,0.1l-5.918-2.367C36.885,22.1,37,21.565,37,21    s-0.115-1.1-0.289-1.607L42.629,17.026z M32,18c1.654,0,3,1.346,3,3s-1.346,3-3,3s-3-1.346-3-3S30.346,18,32,18z M20,17.954    c0-0.337,0.16-0.639,0.439-0.828c0.279-0.188,0.621-0.226,0.932-0.1l5.918,2.367C27.115,19.9,27,20.435,27,21    s0.115,1.1,0.289,1.607l-5.918,2.367c-0.311,0.125-0.652,0.088-0.932-0.1C20.16,24.685,20,24.383,20,24.046V17.954z     M24.571,40.829l-5.657-5.657L17.5,36.586l5.927,5.927l-0.707,2.122L10.866,32.78l2.708-0.903    c0.147-0.049,0.281-0.132,0.391-0.242l5.221-5.221c0.047,0.036,0.083,0.082,0.132,0.115c0.504,0.341,1.091,0.516,1.682,0.516    c0.376,0,0.754-0.071,1.115-0.215l6.201-2.48C29.231,25.357,30.537,26,32,26c0.003,0,0.007-0.001,0.01-0.001    c1.591,2.722,1.188,6.203-1.075,8.465L24.571,40.829z M41.28,44.634l-0.903-2.708c-0.049-0.147-0.132-0.281-0.242-0.391    l-6.813-6.814c1.908-2.684,2.193-6.217,0.734-9.177c0.624-0.284,1.172-0.694,1.628-1.194l6.201,2.48    c0.36,0.144,0.738,0.215,1.115,0.215c0.591,0,1.177-0.175,1.682-0.516c0.049-0.033,0.086-0.08,0.132-0.116l4.514,4.514    l-5.657,5.657L45.086,38l5.927-5.927l2.122,0.707L41.28,44.634z"/><rect class="st4" height="2" transform="matrix(0.7071 -0.7071 0.7071 0.7071 -15.4931 41.4246)" width="2" x="41.257" y="38.414"/><rect class="st4" height="2" transform="matrix(0.7071 -0.7071 0.7071 0.7071 -19.1586 21.2618)" width="2" x="15.086" y="32.757"/><path class="st4" d="M16,21v-8c0-2.757-2.243-5-5-5c-2.444,0-4.484,1.763-4.916,4.084C3.763,12.516,2,14.556,2,17    c0,2.757,2.243,5,5,5h8C15.552,22,16,21.552,16,21z M14,20H7c-1.654,0-3-1.346-3-3s1.346-3,3-3c0.552,0,1-0.448,1-1    c0-1.654,1.346-3,3-3s3,1.346,3,3V20z"/><path class="st4" d="M57.916,12.084C57.484,9.763,55.444,8,53,8c-2.757,0-5,2.243-5,5v8c0,0.552,0.448,1,1,1h8    c2.757,0,5-2.243,5-5C62,14.556,60.237,12.516,57.916,12.084z M57,20h-7v-7c0-1.654,1.346-3,3-3s3,1.346,3,3c0,0.552,0.448,1,1,1    c1.654,0,3,1.346,3,3S58.654,20,57,20z"/></g></g></svg>